<?xml version="1.0" encoding="UTF-8"?>
<svg width="512px" height="512px" viewBox="0 0 512 512" version="1.1" xmlns="http://www.w3.org/2000/svg" xmlns:xlink="http://www.w3.org/1999/xlink">
    <!-- Generator: Sketch 59 (86127) - https://sketch.com -->
    <title>Edit this</title>
    <desc>Created with Sketch.</desc>
    <g id="Edit-this" stroke="none" stroke-width="1" fill="none" fill-rule="evenodd">
        <rect id="Background" fill="#0A1121" x="0" y="0" width="512" height="512"></rect>
        <g id="Shopping-cart" transform="translate(109.000000, 214.000000)" fill="#FFFFFF" fill-rule="nonzero" stroke="#FFFFFF" stroke-width="2">
            <path d="M10,0 C4.48,0 0,0.816654358 0,10 C0,19.1833456 4.48,20 10,20 L32.1875,20 L58.4375,125 C60.6675,133.9 68.6325,140 77.8125,140 L100,140 L190,140 L202.5,140 C211.52,140 219.1825,134.0125 221.5625,125.3125 C238.229702,68.9113725 246.875535,38.6523882 247.5,34.5355469 C248.436697,28.3602851 242.265625,23.3333333 237.03125,23.3333333 C231.796875,23.3333333 228.188292,25.4487625 226.5625,30 C225.478638,33.0341583 217.457805,63.0341583 202.5,120 L77.8125,120 L51.5625,15 C49.3425,6.1 41.3675,0 32.1875,0 L10,0 Z" id="Shape"></path>
            <path d="M190,153 C206.4501,153 220,166.5499 220,183 C220,199.4501 206.4501,213 190,213 C173.5499,213 160,199.4501 160,183 C160,166.5499 173.5499,153 190,153 Z M190,170 C182.666336,170 177,175.666336 177,183 C177,190.333664 182.666336,196 190,196 C197.333664,196 203,190.333664 203,183 C203,175.666336 197.333664,170 190,170 Z" id="Combined-Shape"></path>
            <path d="M100,153 C116.4501,153 130,166.5499 130,183 C130,199.4501 116.4501,213 100,213 C83.5499,213 70,199.4501 70,183 C70,166.5499 83.5499,153 100,153 Z M100,170 C92.666336,170 87,175.666336 87,183 C87,190.333664 92.666336,196 100,196 C107.333664,196 113,190.333664 113,183 C113,175.666336 107.333664,170 100,170 Z" id="Combined-Shape"></path>
        </g>
        <g id="Merge-arrows" transform="translate(161.000000, 117.000000)" fill-rule="nonzero">
            <path d="M194.402673,146.738437 L164.664979,146.738437 C162.690165,146.738437 161.067584,145.132239 161.067584,143.174865 C161.067584,103.359566 129.614921,71.0110751 90.3207453,69.4912314 L90.3207453,92.116177 C90.3207453,93.5669369 89.4661475,94.8507442 88.1091848,95.4091716 C86.7579964,95.98487 85.2220301,95.6682359 84.2057516,94.6434928 L44.3283707,54.7936523 C42.9078906,53.4004623 42.9078906,51.1379677 44.3168221,49.7562916 L84.2057516,9.82585337 C85.2220301,8.81262426 86.7637707,8.47871921 88.1091848,9.04866059 C89.4603732,9.58981705 90.3207453,10.9024093 90.3207453,12.3646831 L90.3207453,32.6695643 C150.321595,34.5693689 197.983251,83.2907211 197.983251,142.863987 C197.97697,144.873175 196.383261,146.738437 194.402673,146.738437 Z" id="Path" fill="#06583D" transform="translate(120.622407, 77.755035) rotate(-90.000000) translate(-120.622407, -77.755035) "></path>
            <path d="M50.575932,82.6097845 L50.575932,92.116177 C50.575932,98.2086791 46.9322006,103.671086 41.3061984,106.016783 C35.6324583,108.402724 29.1096911,107.091494 24.8320198,102.778029 L-15.0198591,62.9536731 C-20.9599625,57.0733831 -20.9767569,47.486575 -15.0359752,41.6007928 L24.8414375,1.68191662 C29.1258294,-2.58962001 35.5908489,-3.92971488 41.245203,-1.58437406 C46.9310098,0.742365589 50.575932,6.27159537 50.575932,12.3646831 L50.575932,22.0249602 C111.447722,29.4192646 158.238434,80.8161763 158.238381,142.899934 C158.212944,151.037835 151.721681,158.238437 143.15786,158.238437 L113.420166,158.238437 C105.118431,158.238437 98.3227712,151.508137 98.3227712,143.174865 C98.3227712,113.809458 78.0070455,89.1149415 50.575932,82.6097845 Z M41.3061984,106.016783 C41.2844408,106.025855 41.2626536,106.03488 41.2408368,106.043858 L36.8643715,95.4091716 L41.372059,105.988905 C41.3501183,105.998253 41.3281647,106.007546 41.3061984,106.016783 Z" id="Path" stroke="#0A1121" stroke-width="23" fill="#00DE75" transform="translate(69.377593, 77.755035) scale(-1, 1) rotate(-90.000000) translate(-69.377593, -77.755035) "></path>
        </g>
    </g>
</svg>